<svg width="169" height="62" viewBox="0 0 169 62" fill="none" xmlns="http://www.w3.org/2000/svg">
   <g clip-path="url(#clip0_613_475)">
      <path d="M51.5765 61.6888C51.0574 61.6888 50.5871 61.5103 50.1654 61.1535C49.7761 60.7641 49.5815 60.245 49.5815 59.5961V35.1649C49.5815 32.8613 49.987 30.8497 50.7979 29.1301C51.6413 27.4105 52.8416 26.0802 54.3986 25.1393C55.9881 24.166 57.8695 23.6793 60.0429 23.6793C60.6592 23.6793 61.162 23.8578 61.5513 24.2147C61.9406 24.5715 62.1352 25.0258 62.1352 25.5773C62.1352 26.0965 61.9406 26.5345 61.5513 26.8914C61.162 27.2483 60.6592 27.4267 60.0429 27.4267C58.6805 27.4267 57.5289 27.7512 56.5882 28.4001C55.6475 29.0165 54.9338 29.8925 54.4473 31.0281C53.9607 32.1313 53.7174 33.4128 53.7174 34.8729V59.5961C53.7174 60.245 53.5228 60.7641 53.1335 61.1535C52.7767 61.5103 52.2577 61.6888 51.5765 61.6888ZM46.808 39.5936C46.2241 39.5936 45.7538 39.4314 45.3969 39.107C45.0725 38.7825 44.9104 38.3607 44.9104 37.8416C44.9104 37.3225 45.0725 36.9007 45.3969 36.5763C45.7538 36.2194 46.2241 36.0409 46.808 36.0409H59.2644C59.8483 36.0409 60.3024 36.2194 60.6268 36.5763C60.9836 36.9007 61.162 37.3225 61.162 37.8416C61.162 38.3607 60.9836 38.7825 60.6268 39.107C60.3024 39.4314 59.8483 39.5936 59.2644 39.5936H46.808Z" fill="white" />
      <path d="M73.0954 61.9321C70.6301 61.9321 68.4242 61.3481 66.4779 60.18C64.5316 58.9796 62.9908 57.3573 61.8554 55.3133C60.7201 53.2692 60.1524 50.9656 60.1524 48.4025C60.1524 45.8069 60.7363 43.487 61.9041 41.443C63.1043 39.3989 64.7263 37.7929 66.7699 36.6249C68.8135 35.4244 71.1166 34.8242 73.6793 34.8242C76.2095 34.8242 78.4802 35.4244 80.4914 36.6249C82.535 37.7929 84.1407 39.3989 85.3085 41.443C86.5087 43.487 87.1251 45.8069 87.1575 48.4025L85.5031 49.1811C85.5031 51.5821 84.9517 53.7559 83.8488 55.7026C82.7783 57.6169 81.3023 59.1418 79.4209 60.2774C77.5719 61.3805 75.4634 61.9321 73.0954 61.9321ZM73.6793 58.1847C75.4634 58.1847 77.0691 57.7629 78.4964 56.9193C79.9237 56.0757 81.0428 54.9077 81.8538 53.4152C82.6648 51.9228 83.0702 50.2518 83.0702 48.4025C83.0702 46.5206 82.6648 44.8497 81.8538 43.3897C81.0428 41.8972 79.9237 40.7292 78.4964 39.8856C77.0691 39.0096 75.4634 38.5716 73.6793 38.5716C71.8952 38.5716 70.2895 39.0096 68.8622 39.8856C67.4349 40.7292 66.2995 41.8972 65.4561 43.3897C64.6127 44.8497 64.191 46.5206 64.191 48.4025C64.191 50.2518 64.6127 51.9228 65.4561 53.4152C66.2995 54.9077 67.4349 56.0757 68.8622 56.9193C70.2895 57.7629 71.8952 58.1847 73.6793 58.1847ZM85.0652 61.6887C84.4489 61.6887 83.9461 61.5103 83.5568 61.1534C83.1676 60.764 82.9729 60.2612 82.9729 59.6447V51.6145L83.8974 47.3318L87.1575 48.4025V59.6447C87.1575 60.2612 86.9466 60.764 86.5249 61.1534C86.1357 61.5103 85.6491 61.6887 85.0652 61.6887Z" fill="white" />
      <path d="M96.7067 61.6888C95.3767 61.6888 94.1765 61.3319 93.106 60.6181C92.068 59.8718 91.257 58.8498 90.6731 57.552C90.0892 56.2542 89.7973 54.7617 89.7973 53.0746V25.7233C89.7973 25.1069 89.9757 24.6202 90.3325 24.2633C90.7218 23.874 91.2246 23.6793 91.8409 23.6793C92.4572 23.6793 92.9438 23.874 93.3006 24.2633C93.6899 24.6202 93.8845 25.1069 93.8845 25.7233V53.0746C93.8845 54.4048 94.144 55.4917 94.663 56.3353C95.2145 57.1789 95.8957 57.6007 96.7067 57.6007H97.9231C98.4746 57.6007 98.9125 57.7953 99.2369 58.1847C99.5612 58.5416 99.7234 59.0283 99.7234 59.6447C99.7234 60.2612 99.4801 60.7641 98.9936 61.1534C98.5394 61.5103 97.9231 61.6888 97.1446 61.6888H96.7067Z" fill="white" />
      <path d="M111.17 61.9321C108.705 61.9321 106.499 61.3481 104.553 60.18C102.606 58.9796 101.066 57.3573 99.9303 55.3133C98.795 53.2692 98.2273 50.9656 98.2273 48.4025C98.2273 45.8068 98.8112 43.487 99.979 41.443C101.179 39.3989 102.801 37.7929 104.845 36.6249C106.888 35.4244 109.192 34.8242 111.754 34.8242C114.284 34.8242 116.555 35.4244 118.566 36.6249C120.61 37.7929 122.216 39.3989 123.383 41.443C124.584 43.487 125.2 45.8068 125.232 48.4025L123.578 49.1811C123.578 51.5821 123.027 53.7559 121.924 55.7026C120.853 57.6169 119.377 59.1418 117.496 60.2774C115.647 61.3805 113.538 61.9321 111.17 61.9321ZM111.754 58.1847C113.538 58.1847 115.144 57.7629 116.571 56.9193C117.999 56.0757 119.118 54.9077 119.929 53.4152C120.74 51.9228 121.145 50.2518 121.145 48.4025C121.145 46.5206 120.74 44.8497 119.929 43.3897C119.118 41.8972 117.999 40.7292 116.571 39.8856C115.144 39.0096 113.538 38.5716 111.754 38.5716C109.97 38.5716 108.364 39.0096 106.937 39.8856C105.51 40.7292 104.374 41.8972 103.531 43.3897C102.688 44.8497 102.266 46.5206 102.266 48.4025C102.266 50.2518 102.688 51.9228 103.531 53.4152C104.374 54.9077 105.51 56.0757 106.937 56.9193C108.364 57.7629 109.97 58.1847 111.754 58.1847ZM123.14 61.6887C122.524 61.6887 122.021 61.5103 121.632 61.1534C121.242 60.7641 121.048 60.2612 121.048 59.6447V51.6145L121.972 47.3318L125.232 48.4025V59.6447C125.232 60.2612 125.022 60.7641 124.6 61.1534C124.211 61.5103 123.724 61.6887 123.14 61.6887Z" fill="white" />
      <path d="M139.015 61.6887C137.328 61.6887 135.819 61.2832 134.489 60.472C133.16 59.6609 132.105 58.5416 131.327 57.114C130.581 55.6864 130.208 54.0803 130.208 52.2959V28.692C130.208 28.0756 130.386 27.5727 130.743 27.1833C131.132 26.794 131.635 26.5993 132.251 26.5993C132.835 26.5993 133.322 26.794 133.711 27.1833C134.1 27.5727 134.295 28.0756 134.295 28.692V52.2959C134.295 53.8208 134.733 55.0861 135.609 56.0919C136.517 57.0653 137.652 57.552 139.015 57.552H140.426C140.977 57.552 141.431 57.7467 141.788 58.136C142.145 58.5253 142.323 59.0282 142.323 59.6447C142.323 60.2612 142.096 60.764 141.642 61.1534C141.22 61.5103 140.669 61.6887 139.988 61.6887H139.015ZM127.337 39.5936C126.785 39.5936 126.331 39.4314 125.974 39.1069C125.618 38.7825 125.439 38.3607 125.439 37.8416C125.439 37.3224 125.618 36.9007 125.974 36.5762C126.331 36.2193 126.785 36.0409 127.337 36.0409H146.46C147.012 36.0409 147.466 36.2193 147.823 36.5762C148.179 36.9007 148.358 37.3224 148.358 37.8416C148.358 38.3607 148.179 38.7825 147.823 39.1069C147.466 39.4314 147.012 39.5936 146.46 39.5936H127.337Z" fill="white" />
      <path d="M156.154 61.9808C153.884 61.9808 151.84 61.5104 150.023 60.5695C148.239 59.5961 146.828 58.1847 145.79 56.3354C144.752 54.486 144.233 52.2148 144.233 49.5219V38.3404C144.233 37.7564 144.428 37.2698 144.817 36.8804C145.206 36.4911 145.693 36.2964 146.277 36.2964C146.893 36.2964 147.396 36.4911 147.785 36.8804C148.174 37.2698 148.369 37.7564 148.369 38.3404V49.5219C148.369 51.4686 148.726 53.0746 149.44 54.34C150.186 55.6053 151.191 56.5463 152.456 57.1627C153.721 57.7792 155.149 58.0874 156.738 58.0874C158.263 58.0874 159.625 57.7954 160.825 57.2114C162.058 56.6274 163.031 55.8163 163.745 54.778C164.459 53.7398 164.815 52.5717 164.815 51.2739H167.638C167.573 53.318 167.037 55.1511 166.032 56.7734C165.026 58.3632 163.664 59.6286 161.945 60.5695C160.225 61.5104 158.295 61.9808 156.154 61.9808ZM166.908 61.6888C166.291 61.6888 165.789 61.4941 165.399 61.1048C165.01 60.7155 164.815 60.2126 164.815 59.5961V38.2527C164.815 37.6362 165.01 37.1495 165.399 36.7926C165.789 36.4033 166.291 36.2086 166.908 36.2086C167.524 36.2086 168.027 36.4033 168.416 36.7926C168.805 37.1495 169 37.6362 169 38.2527V59.5961C169 60.2126 168.805 60.7155 168.416 61.1048C168.027 61.4941 167.524 61.6888 166.908 61.6888Z" fill="white" />
      <path fill-rule="evenodd" clip-rule="evenodd" d="M49.7801 3.07289V5.51312C49.7801 9.55364 46.5139 12.8296 42.4832 12.8338L16.5934 12.8338V10.3936C16.5934 6.35048 19.8638 3.07289 23.8981 3.07289L49.7801 3.07289ZM13.5272 12.8338V10.3936C13.5272 4.65337 18.1704 0 23.8981 0L52.8463 2.75815e-06V5.51312C52.8463 9.66943 50.412 13.2559 46.8943 14.9187V18.3469C46.8943 24.0872 42.2511 28.7405 36.5235 28.7405H30.1206V51.6064C30.1206 57.3466 25.4774 62 19.7497 62H13.5272V28.7405H2.16435C0.969014 28.7405 0 27.7694 0 26.5714V23.2274C0 17.4872 4.64319 12.8338 10.3709 12.8338H13.5272ZM13.5272 15.9067L10.3709 15.9067C6.33659 15.9067 3.06617 19.1843 3.06617 23.2274V25.6676H16.5934V58.9271H19.7497C23.784 58.9271 27.0544 55.6495 27.0544 51.6064V25.6676H36.5235C40.5578 25.6676 43.8282 22.3901 43.8282 18.3469V15.9067H42.4855C42.4822 15.9067 42.4788 15.9067 42.4755 15.9067L13.5272 15.9067Z" fill="white" />
   </g>
   <defs>
      <clipPath id="clip0_613_475">
         <rect width="169" height="62" fill="white" />
      </clipPath>
   </defs>
</svg>
   