<?xml version="1.0" encoding="UTF-8" standalone="no"?>
<!-- Created with Inkscape (http://www.inkscape.org/) -->

<svg
   xmlns:dc="http://purl.org/dc/elements/1.1/"
   xmlns:cc="http://creativecommons.org/ns#"
   xmlns:rdf="http://www.w3.org/1999/02/22-rdf-syntax-ns#"
   xmlns:svg="http://www.w3.org/2000/svg"
   xmlns="http://www.w3.org/2000/svg"
   xmlns:sodipodi="http://sodipodi.sourceforge.net/DTD/sodipodi-0.dtd"
   xmlns:inkscape="http://www.inkscape.org/namespaces/inkscape"
   width="133.61905mm"
   height="41.23439mm"
   viewBox="0 0 133.61905 41.23439"
   version="1.1"
   id="svg8"
   inkscape:version="0.92.5 (2060ec1f9f, 2020-04-08)"
   sodipodi:docname="falatu-typo.svg">
  <defs
     id="defs2" />
  <sodipodi:namedview
     id="base"
     pagecolor="#ffffff"
     bordercolor="#666666"
     borderopacity="1.0"
     inkscape:pageopacity="0.0"
     inkscape:pageshadow="2"
     inkscape:zoom="0.24748737"
     inkscape:cx="-281.53505"
     inkscape:cy="-202.84828"
     inkscape:document-units="mm"
     inkscape:current-layer="layer1"
     showgrid="false"
     showguides="true"
     inkscape:guide-bbox="true"
     fit-margin-top="0"
     fit-margin-left="0"
     fit-margin-right="0"
     fit-margin-bottom="0"
     inkscape:window-width="1366"
     inkscape:window-height="713"
     inkscape:window-x="0"
     inkscape:window-y="25"
     inkscape:window-maximized="1">
    <sodipodi:guide
       position="69.546094,28.04442"
       orientation="0,1"
       id="guide838"
       inkscape:locked="false" />
    <sodipodi:guide
       position="111.3867,23.91673"
       orientation="1,0"
       id="guide840"
       inkscape:locked="false" />
  </sodipodi:namedview>
  <metadata
     id="metadata5">
    <rdf:RDF>
      <cc:Work
         rdf:about="">
        <dc:format>image/svg+xml</dc:format>
        <dc:type
           rdf:resource="http://purl.org/dc/dcmitype/StillImage" />
        <dc:title></dc:title>
      </cc:Work>
    </rdf:RDF>
  </metadata>
  <g
     inkscape:label="Layer 1"
     inkscape:groupmode="layer"
     id="layer1"
     transform="translate(-34.208366,-121.09128)">
    <g
       id="g848">
      <path
         d="m 41.386399,162.01131 q -0.838311,0 -1.519438,-0.57634 -0.628733,-0.62873 -0.628733,-1.67662 v -26.30199 q 0,-3.72 1.30986,-6.49691 1.362255,-2.7769 3.877186,-4.29634 2.567326,-1.57183 6.077751,-1.57183 0.995493,0 1.624226,0.57634 0.628733,0.57634 0.628733,1.46704 0,0.83831 -0.628733,1.41465 -0.628733,0.57634 -1.624226,0.57634 -2.200565,0 -3.720003,1.04789 -1.519438,0.99549 -2.305354,2.82929 -0.785916,1.78141 -0.785916,4.13916 v 26.61636 q 0,1.04789 -0.628732,1.67662 -0.576339,0.57634 -1.676621,0.57634 z m -5.134652,-23.78706 q -0.943099,0 -1.519437,-0.52395 -0.523944,-0.52394 -0.523944,-1.36225 0,-0.83831 0.523944,-1.36225 0.576338,-0.57634 1.519437,-0.57634 h 13.412967 q 0.943099,0 1.467043,0.57634 0.576339,0.52394 0.576339,1.36225 0,0.83831 -0.576339,1.36225 -0.523944,0.52395 -1.467043,0.52395 z"
         style="font-style:normal;font-variant:normal;font-weight:500;font-stretch:normal;font-size:52.39440155px;line-height:1.25;font-family:Comfortaa;-inkscape-font-specification:'Comfortaa Medium';letter-spacing:-3.96875px;word-spacing:0px;fill:#ffffff;fill-opacity:1;stroke:none;stroke-width:1.30985999"
         id="path819"
         inkscape:connector-curvature="0" />
      <path
         d="m 64.557885,162.27328 q -3.981975,0 -7.125639,-1.8862 -3.143664,-1.93859 -4.977468,-5.23944 -1.833804,-3.30085 -1.833804,-7.44 0,-4.19156 1.886198,-7.4924 1.938593,-3.30085 5.23944,-5.18705 3.300848,-1.93859 7.440005,-1.93859 4.086764,0 7.335217,1.93859 3.300847,1.8862 5.187045,5.18705 1.938593,3.30084 1.990988,7.4924 l -1.78141,0.83831 q 0,3.87718 -1.78141,7.02085 -1.729015,3.09127 -4.76789,4.92507 -2.986481,1.78141 -6.811272,1.78141 z m 0.628732,-4.03437 q 2.881693,0 5.187046,-1.36225 2.305354,-1.36226 3.615214,-3.7724 1.30986,-2.41014 1.30986,-5.39662 0,-3.03888 -1.30986,-5.39663 -1.30986,-2.41014 -3.615214,-3.7724 -2.305353,-1.41464 -5.187046,-1.41464 -2.881692,0 -5.187045,1.41464 -2.305354,1.36226 -3.667608,3.7724 -1.362255,2.35775 -1.362255,5.39663 0,2.98648 1.362255,5.39662 1.362254,2.41014 3.667608,3.7724 2.305353,1.36225 5.187045,1.36225 z m 12.26029,3.7724 q -0.995493,0 -1.624226,-0.57634 -0.628733,-0.62873 -0.628733,-1.62423 v -8.64507 l 0.995494,-4.61071 3.510425,1.15268 v 12.1031 q 0,0.9955 -0.681128,1.62423 -0.628732,0.57634 -1.571832,0.57634 z"
         style="font-style:normal;font-variant:normal;font-weight:500;font-stretch:normal;font-size:52.39440155px;line-height:1.25;font-family:Comfortaa;-inkscape-font-specification:'Comfortaa Medium';letter-spacing:-3.96875px;word-spacing:0px;fill:#ffffff;fill-opacity:1;stroke:none;stroke-width:1.30985999"
         id="path821"
         inkscape:connector-curvature="0" />
      <path
         d="m 89.982327,162.01131 q -2.14817,0 -3.877186,-1.15268 -1.676621,-1.20507 -2.61972,-3.30085 -0.943099,-2.09577 -0.943099,-4.82028 v -29.44566 q 0,-0.99549 0.576338,-1.57183 0.628733,-0.62873 1.624227,-0.62873 0.995494,0 1.571832,0.62873 0.628733,0.57634 0.628733,1.57183 v 29.44566 q 0,2.14817 0.83831,3.51042 0.890705,1.36226 2.200565,1.36226 h 1.30986 q 0.890705,0 1.414649,0.62873 0.523944,0.57634 0.523944,1.57183 0,0.9955 -0.785916,1.62423 -0.733522,0.57634 -1.990987,0.57634 z"
         style="font-style:normal;font-variant:normal;font-weight:500;font-stretch:normal;font-size:52.39440155px;line-height:1.25;font-family:Comfortaa;-inkscape-font-specification:'Comfortaa Medium';letter-spacing:-3.96875px;word-spacing:0px;fill:#ffffff;fill-opacity:1;stroke:none;stroke-width:1.30985999"
         id="path823"
         inkscape:connector-curvature="0" />
      <path
         d="m 105.55656,162.27328 q -3.98198,0 -7.125642,-1.8862 -3.143664,-1.93859 -4.977468,-5.23944 -1.833804,-3.30085 -1.833804,-7.44 0,-4.19156 1.886199,-7.4924 1.938593,-3.30085 5.23944,-5.18705 3.300845,-1.93859 7.440005,-1.93859 4.08676,0 7.33522,1.93859 3.30084,1.8862 5.18704,5.18705 1.93859,3.30084 1.99099,7.4924 l -1.78141,0.83831 q 0,3.87718 -1.78141,7.02085 -1.72902,3.09127 -4.76789,4.92507 -2.98648,1.78141 -6.81127,1.78141 z m 0.62873,-4.03437 q 2.88169,0 5.18705,-1.36225 2.30535,-1.36226 3.61521,-3.7724 1.30986,-2.41014 1.30986,-5.39662 0,-3.03888 -1.30986,-5.39663 -1.30986,-2.41014 -3.61521,-3.7724 -2.30536,-1.41464 -5.18705,-1.41464 -2.88169,0 -5.18705,1.41464 -2.305349,1.36226 -3.667604,3.7724 -1.362254,2.35775 -1.362254,5.39663 0,2.98648 1.362254,5.39662 1.362255,2.41014 3.667604,3.7724 2.30536,1.36225 5.18705,1.36225 z m 12.26029,3.7724 q -0.99549,0 -1.62423,-0.57634 -0.62873,-0.62873 -0.62873,-1.62423 v -8.64507 l 0.99549,-4.61071 3.51043,1.15268 v 12.1031 q 0,0.9955 -0.68113,1.62423 -0.62873,0.57634 -1.57183,0.57634 z"
         style="font-style:normal;font-variant:normal;font-weight:500;font-stretch:normal;font-size:52.39440155px;line-height:1.25;font-family:Comfortaa;-inkscape-font-specification:'Comfortaa Medium';letter-spacing:-3.96875px;word-spacing:0px;fill:#ffffff;fill-opacity:1;stroke:none;stroke-width:1.30985999"
         id="path825"
         inkscape:connector-curvature="0" />
      <path
         sodipodi:nodetypes="sscsscsssscsscscssscscsscscss"
         d="m 135.53932,162.01131 c -1.81634,0 -3.44057,-0.43662 -4.87268,-1.30986 -1.43211,-0.87324 -2.56733,-2.07831 -3.40564,-3.61522 -0.80338,-1.5369 -1.20507,-3.26591 -1.20507,-5.18704 V 126.4879 c 0,-0.66366 0.19211,-1.20507 0.57634,-1.62422 0.41915,-0.41916 0.96056,-0.62874 1.62422,-0.62874 0.62873,0 1.15268,0.20958 1.57184,0.62874 0.41915,0.41915 0.62873,0.96056 0.62873,1.62422 v 25.41129 c 0,1.64169 0.47155,3.00394 1.41465,4.08676 0.97803,1.04789 2.20056,1.57183 3.66761,1.57183 h 1.51943 c 0.59381,0 1.08282,0.20958 1.46705,0.62874 0.38423,0.41915 0.57634,0.96056 0.57634,1.62422 0,0.66367 -0.24451,1.20508 -0.73353,1.62423 -0.45408,0.38423 -1.04788,0.57634 -1.78141,0.57634 z m -12.57466,-23.78706 c -0.5938,0 -1.08281,-0.17465 -1.46704,-0.52395 -0.38423,-0.34929 -0.57634,-0.80338 -0.57634,-1.36225 0,-0.55887 0.19211,-1.01296 0.57634,-1.36225 0.38423,-0.38423 0.87324,-0.57634 1.46704,-0.57634 h 20.59201 c 0.5938,0 1.08281,0.19211 1.46704,0.57634 0.38423,0.34929 0.57634,0.80338 0.57634,1.36225 0,0.55887 -0.19211,1.01296 -0.57634,1.36225 -0.38423,0.3493 -0.87324,0.52395 -1.46704,0.52395 z"
         style="font-style:normal;font-variant:normal;font-weight:500;font-stretch:normal;font-size:52.39440155px;line-height:1.25;font-family:Comfortaa;-inkscape-font-specification:'Comfortaa Medium';letter-spacing:-3.96875px;word-spacing:0px;fill:#ffffff;fill-opacity:1;stroke:none;stroke-width:1.30985999"
         id="path827"
         inkscape:connector-curvature="0" />
      <path
         sodipodi:nodetypes="scssscscssccsccccccsscsscscsscs"
         d="m 153.99529,162.32567 c -2.44507,0 -4.64564,-0.50648 -6.60169,-1.51943 -1.92113,-1.04789 -3.44057,-2.56733 -4.55832,-4.55832 -1.11775,-1.99099 -1.67662,-4.43606 -1.67662,-7.33521 v -12.03766 c 0,-0.62874 0.20958,-1.15268 0.62873,-1.57183 0.41916,-0.41916 0.94311,-0.62873 1.57184,-0.62873 0.66366,0 1.20507,0.20957 1.62422,0.62873 0.41916,0.41915 0.62874,0.94309 0.62874,1.57183 v 12.03766 c 0,2.09577 0.38422,3.82479 1.15267,5.18704 0.80338,1.36225 1.8862,2.37521 3.24846,3.03888 1.36225,0.66366 2.89915,0.99549 4.6107,0.99549 1.64169,0 3.10874,-0.31437 4.40113,-0.9431 1.32733,-0.62873 2.37522,-1.50197 3.14367,-2.61972 0.76845,-1.11775 1.15267,-2.37521 1.15267,-3.7724 h 3.03888 c -0.0699,2.20057 -0.6462,4.17409 -1.72902,5.92057 -1.08281,1.71155 -2.54986,3.07381 -4.40113,4.08677 -1.85127,1.01295 -3.92958,1.51943 -6.23493,1.51943 z m 11.57916,-0.31436 c -0.66366,0 -1.20507,-0.20958 -1.62422,-0.62874 -0.41916,-0.41915 -0.62874,-0.96056 -0.62874,-1.62422 v -22.9778 c 0,-0.66366 0.20958,-1.1876 0.62874,-1.57183 0.41915,-0.41915 0.96056,-0.62873 1.62422,-0.62873 0.66367,0 1.20508,0.20958 1.62423,0.62873 0.41915,0.38423 0.62873,0.90817 0.62873,1.57183 v 22.9778 c 0,0.66366 -0.20958,1.20507 -0.62873,1.62422 -0.41915,0.41916 -0.96056,0.62874 -1.62423,0.62874 z"
         style="font-style:normal;font-variant:normal;font-weight:500;font-stretch:normal;font-size:52.39440155px;line-height:1.25;font-family:Comfortaa;-inkscape-font-specification:'Comfortaa Medium';letter-spacing:-3.96875px;word-spacing:0px;fill:#ffffff;fill-opacity:1;stroke:none;stroke-width:1.30985999"
         id="path829"
         inkscape:connector-curvature="0" />
    </g>
  </g>
</svg>
