<svg width="107" height="30" viewBox="0 0 107 30" fill="none" xmlns="http://www.w3.org/2000/svg">
<path d="M5.364 29C4.908 29 4.5 28.832 4.14 28.496C3.78 28.16 3.6 27.716 3.6 27.164V13.124H2.052C1.548 13.124 1.14 12.98 0.828 12.692C0.516 12.404 0.36 12.044 0.36 11.612C0.36 11.132 0.516 10.748 0.828 10.46C1.14 10.172 1.548 10.028 2.052 10.028H3.6V9.416C3.6 7.688 3.936 6.188 4.608 4.916C5.304 3.644 6.264 2.66 7.488 1.964C8.712 1.244 10.128 0.883999 11.736 0.883999C12.264 0.883999 12.696 1.04 13.032 1.352C13.392 1.664 13.572 2.06 13.572 2.54C13.572 2.996 13.392 3.392 13.032 3.728C12.696 4.04 12.264 4.196 11.736 4.196C10.392 4.196 9.312 4.64 8.496 5.528C7.68 6.416 7.272 7.592 7.272 9.056V10.028H10.944C11.448 10.028 11.856 10.172 12.168 10.46C12.48 10.748 12.636 11.132 12.636 11.612C12.636 12.044 12.48 12.404 12.168 12.692C11.856 12.98 11.448 13.124 10.944 13.124H7.272V27.164C7.272 27.716 7.104 28.16 6.768 28.496C6.432 28.832 5.964 29 5.364 29ZM23.9636 29.144C22.2116 29.144 20.6396 28.712 19.2476 27.848C17.8556 26.96 16.7516 25.772 15.9356 24.284C15.1436 22.772 14.7476 21.068 14.7476 19.172C14.7476 17.276 15.1796 15.572 16.0436 14.06C16.9316 12.548 18.1196 11.36 19.6076 10.496C21.1196 9.608 22.8116 9.164 24.6836 9.164C26.5556 9.164 28.2356 9.608 29.7236 10.496C31.2116 11.36 32.3876 12.548 33.2516 14.06C34.1396 15.572 34.5836 17.276 34.5836 19.172V27.2C34.5836 27.728 34.4036 28.172 34.0436 28.532C33.7076 28.868 33.2756 29.036 32.7476 29.036C32.2196 29.036 31.7756 28.868 31.4156 28.532C31.0796 28.172 30.9116 27.728 30.9116 27.2V25.868C30.0716 26.876 29.0516 27.68 27.8516 28.28C26.6756 28.856 25.3796 29.144 23.9636 29.144ZM24.6836 25.904C25.9076 25.904 26.9996 25.616 27.9596 25.04C28.9196 24.44 29.6756 23.636 30.2276 22.628C30.7796 21.596 31.0556 20.444 31.0556 19.172C31.0556 17.876 30.7796 16.724 30.2276 15.716C29.6756 14.684 28.9196 13.88 27.9596 13.304C26.9996 12.704 25.9076 12.404 24.6836 12.404C23.4836 12.404 22.3916 12.704 21.4076 13.304C20.4476 13.88 19.6796 14.684 19.1036 15.716C18.5516 16.724 18.2756 17.876 18.2756 19.172C18.2756 20.444 18.5516 21.596 19.1036 22.628C19.6796 23.636 20.4476 24.44 21.4076 25.04C22.3916 25.616 23.4836 25.904 24.6836 25.904ZM44.7286 29C43.6726 29 42.7366 28.712 41.9206 28.136C41.1046 27.56 40.4686 26.78 40.0126 25.796C39.5566 24.788 39.3286 23.636 39.3286 22.34V2.684C39.3286 2.156 39.4966 1.724 39.8326 1.388C40.1686 1.052 40.6006 0.883999 41.1286 0.883999C41.6566 0.883999 42.0886 1.052 42.4246 1.388C42.7606 1.724 42.9286 2.156 42.9286 2.684V22.34C42.9286 23.228 43.0966 23.96 43.4326 24.536C43.7686 25.112 44.2006 25.4 44.7286 25.4H45.6286C46.1086 25.4 46.4926 25.568 46.7806 25.904C47.0926 26.24 47.2486 26.672 47.2486 27.2C47.2486 27.728 47.0206 28.16 46.5646 28.496C46.1086 28.832 45.5206 29 44.8006 29H44.7286ZM57.9597 29.144C56.2077 29.144 54.6357 28.712 53.2437 27.848C51.8517 26.96 50.7477 25.772 49.9317 24.284C49.1397 22.772 48.7437 21.068 48.7437 19.172C48.7437 17.276 49.1757 15.572 50.0397 14.06C50.9277 12.548 52.1157 11.36 53.6037 10.496C55.1157 9.608 56.8077 9.164 58.6797 9.164C60.5517 9.164 62.2317 9.608 63.7197 10.496C65.2077 11.36 66.3837 12.548 67.2477 14.06C68.1357 15.572 68.5797 17.276 68.5797 19.172V27.2C68.5797 27.728 68.3997 28.172 68.0397 28.532C67.7037 28.868 67.2717 29.036 66.7437 29.036C66.2157 29.036 65.7717 28.868 65.4117 28.532C65.0757 28.172 64.9077 27.728 64.9077 27.2V25.868C64.0677 26.876 63.0477 27.68 61.8477 28.28C60.6717 28.856 59.3757 29.144 57.9597 29.144ZM58.6797 25.904C59.9037 25.904 60.9957 25.616 61.9557 25.04C62.9157 24.44 63.6717 23.636 64.2237 22.628C64.7757 21.596 65.0517 20.444 65.0517 19.172C65.0517 17.876 64.7757 16.724 64.2237 15.716C63.6717 14.684 62.9157 13.88 61.9557 13.304C60.9957 12.704 59.9037 12.404 58.6797 12.404C57.4797 12.404 56.3877 12.704 55.4037 13.304C54.4437 13.88 53.6757 14.684 53.0997 15.716C52.5477 16.724 52.2717 17.876 52.2717 19.172C52.2717 20.444 52.5477 21.596 53.0997 22.628C53.6757 23.636 54.4437 24.44 55.4037 25.04C56.3877 25.616 57.4797 25.904 58.6797 25.904ZM81.2087 29C80.0087 29 78.9287 28.7 77.9687 28.1C77.0087 27.476 76.2527 26.636 75.7007 25.58C75.1487 24.524 74.8727 23.336 74.8727 22.016V13.124H73.2167C72.7127 13.124 72.3047 12.98 71.9927 12.692C71.6807 12.404 71.5247 12.044 71.5247 11.612C71.5247 11.132 71.6807 10.748 71.9927 10.46C72.3047 10.172 72.7127 10.028 73.2167 10.028H74.8727V4.844C74.8727 4.316 75.0407 3.884 75.3767 3.548C75.7127 3.212 76.1447 3.044 76.6727 3.044C77.2007 3.044 77.6327 3.212 77.9687 3.548C78.3047 3.884 78.4727 4.316 78.4727 4.844V10.028H81.5327C82.0367 10.028 82.4447 10.172 82.7567 10.46C83.0687 10.748 83.2247 11.132 83.2247 11.612C83.2247 12.044 83.0687 12.404 82.7567 12.692C82.4447 12.98 82.0367 13.124 81.5327 13.124H78.4727V22.016C78.4727 22.976 78.7367 23.78 79.2647 24.428C79.7927 25.076 80.4407 25.4 81.2087 25.4H82.4327C82.8647 25.4 83.2247 25.568 83.5127 25.904C83.8247 26.24 83.9807 26.672 83.9807 27.2C83.9807 27.728 83.7767 28.16 83.3687 28.496C82.9847 28.832 82.4807 29 81.8567 29H81.2087ZM96.7739 29.18C95.1179 29.18 93.6299 28.832 92.3099 28.136C91.0139 27.416 89.9819 26.372 89.2139 25.004C88.4699 23.636 88.0979 21.956 88.0979 19.964V11.108C88.0979 10.58 88.2659 10.148 88.6019 9.812C88.9619 9.452 89.4059 9.272 89.9339 9.272C90.4619 9.272 90.8939 9.452 91.2299 9.812C91.5899 10.148 91.7699 10.58 91.7699 11.108V19.964C91.7699 22.004 92.3099 23.504 93.3899 24.464C94.4939 25.4 95.8619 25.868 97.4939 25.868C98.5259 25.868 99.4379 25.664 100.23 25.256C101.046 24.848 101.694 24.296 102.174 23.6C102.654 22.904 102.894 22.124 102.894 21.26V11.108C102.894 10.556 103.062 10.112 103.398 9.776C103.758 9.44 104.202 9.272 104.73 9.272C105.282 9.272 105.726 9.44 106.062 9.776C106.398 10.112 106.566 10.556 106.566 11.108V27.164C106.566 27.692 106.398 28.136 106.062 28.496C105.726 28.832 105.282 29 104.73 29C104.202 29 103.758 28.832 103.398 28.496C103.062 28.136 102.894 27.692 102.894 27.164V26.768C102.15 27.512 101.25 28.1 100.194 28.532C99.1379 28.964 97.9979 29.18 96.7739 29.18Z" fill="white"/>
</svg>
