<svg width="33" height="38" viewBox="0 0 33 38" fill="none" xmlns="http://www.w3.org/2000/svg">
   <path fill-rule="evenodd" clip-rule="evenodd" d="M30.5772 1.88338V3.37901C30.5772 5.8553 28.5712 7.86307 26.0956 7.86589L10.1924 7.86589V6.37026C10.1924 3.89223 12.2013 1.88338 14.6793 1.88338L30.5772 1.88338ZM8.30903 7.86589V6.37026C8.30903 2.85206 11.1611 0 14.6793 0H32.4606V3.37901C32.4606 5.92641 30.9654 8.12459 28.8047 9.14373V11.2449C28.8047 14.7631 25.9526 17.6152 22.4344 17.6152H18.5015V31.6297C18.5015 35.1479 15.6494 38 12.1312 38H8.30904V17.6152H1.32945C0.595213 17.6152 0 17.0199 0 16.2857V14.2361C0 10.7179 2.85206 7.86589 6.37026 7.86589H8.30903ZM8.30903 9.74927L6.37026 9.74927C3.89223 9.74927 1.88338 11.7581 1.88338 14.2361V15.7318H10.1924V36.1166H12.1312C14.6092 36.1166 16.6181 34.1078 16.6181 31.6297V15.7318H22.4344C24.9124 15.7318 26.9213 13.7229 26.9213 11.2449V9.74927H26.0974C26.0951 9.74927 26.0927 9.74927 26.0904 9.74927L8.30903 9.74927Z" fill="white" />
</svg>
   