<?xml version="1.0" encoding="UTF-8" standalone="no"?>
<svg
   xmlns:dc="http://purl.org/dc/elements/1.1/"
   xmlns:cc="http://creativecommons.org/ns#"
   xmlns:rdf="http://www.w3.org/1999/02/22-rdf-syntax-ns#"
   xmlns:svg="http://www.w3.org/2000/svg"
   xmlns="http://www.w3.org/2000/svg"
   xmlns:sodipodi="http://sodipodi.sourceforge.net/DTD/sodipodi-0.dtd"
   xmlns:inkscape="http://www.inkscape.org/namespaces/inkscape"
   viewBox="0 0 73.041 25.389"
   version="1.1"
   id="svg14"
   sodipodi:docname="wdyt-logo.svg"
   inkscape:version="0.92.5 (2060ec1f9f, 2020-04-08)">
  <metadata
     id="metadata18">
    <rdf:RDF>
      <cc:Work
         rdf:about="">
        <dc:format>image/svg+xml</dc:format>
        <dc:type
           rdf:resource="http://purl.org/dc/dcmitype/StillImage" />
      </cc:Work>
    </rdf:RDF>
  </metadata>
  <sodipodi:namedview
     pagecolor="#ffffff"
     bordercolor="#666666"
     borderopacity="1"
     objecttolerance="10"
     gridtolerance="10"
     guidetolerance="10"
     inkscape:pageopacity="0"
     inkscape:pageshadow="2"
     inkscape:window-width="1366"
     inkscape:window-height="713"
     id="namedview16"
     showgrid="false"
     inkscape:zoom="4.8876658"
     inkscape:cx="36.5205"
     inkscape:cy="12.6945"
     inkscape:window-x="0"
     inkscape:window-y="25"
     inkscape:window-maximized="1"
     inkscape:current-layer="g12" />
  <defs
     id="defs2" />
  <g
     font-weight="700"
     font-size="31.75"
     font-family="Bebas Neue"
     letter-spacing="0"
     word-spacing="0"
     stroke-width=".794"
     id="g12">
    <path
       style="line-height:1.25;-inkscape-font-specification:'Bebas Neue Bold';fill:none;stroke:#543a6a"
       d="M 67.5 2.5136719 C 65.806667 2.5136719 64.396305 2.9989896 63.267578 3.9726562 C 62.144523 4.9251562 61.34146 6.3023958 60.859375 8.1015625 L 60.273438 10.291016 L 63.574219 10.291016 L 64.220703 7.8789062 C 64.42488 7.1169062 64.720343 6.5671823 65.107422 6.2285156 C 65.500172 5.8686823 65.983187 5.6875 66.554688 5.6875 C 67.126188 5.6875 67.511021 5.8686823 67.710938 6.2285156 C 67.916515 6.5671823 67.917068 7.1169063 67.712891 7.8789062 C 67.372595 9.1489063 66.92528 10.185901 66.371094 10.990234 C 65.816906 11.794568 65.078981 12.69462 64.15625 13.689453 C 63.331048 14.557286 62.662678 15.350646 62.152344 16.070312 C 61.668848 16.768812 61.285532 17.646745 61.001953 18.705078 C 60.860161 19.234245 60.803212 19.689313 60.828125 20.070312 L 63.939453 20.070312 C 63.951204 19.710479 64.019757 19.297698 64.144531 18.832031 C 64.365723 18.006531 64.695122 17.287661 65.134766 16.673828 C 65.595575 16.059995 66.247194 15.329089 67.087891 14.482422 C 68.127799 13.445255 68.969189 12.472667 69.615234 11.5625 C 70.261279 10.652333 70.772159 9.4985625 71.146484 8.1015625 C 71.62857 6.3023958 71.563784 4.9251562 70.951172 3.9726562 C 70.344232 2.9989896 69.193333 2.5136719 67.5 2.5136719 z M 7.9003906 2.7675781 L 4.421875 24.992188 L 9.2167969 24.992188 L 13.660156 13.148438 L 11.757812 24.992188 L 16.392578 24.992188 L 24.824219 2.7675781 L 21.775391 2.7675781 L 15.236328 20.419922 L 18.220703 2.7675781 L 14.855469 2.7675781 L 8.4765625 20.292969 L 11.298828 2.7675781 L 7.9003906 2.7675781 z M 26.570312 2.7675781 L 20.615234 24.992188 L 26.138672 24.992188 C 27.874339 24.992188 29.302539 24.527036 30.419922 23.595703 C 31.537305 22.66437 32.336274 21.299167 32.818359 19.5 L 35.830078 8.2597656 C 36.312163 6.460599 36.243283 5.0953958 35.625 4.1640625 C 35.006717 3.2327292 33.83137 2.7675781 32.095703 2.7675781 L 26.570312 2.7675781 z M 37.904297 2.7675781 L 38.335938 17.626953 L 36.363281 24.992188 L 39.855469 24.992188 L 41.830078 17.626953 L 50.224609 2.7675781 L 46.890625 2.7675781 L 41.509766 12.894531 L 41.556641 2.7675781 L 37.904297 2.7675781 z M 50.605469 2.7675781 L 49.753906 5.9414062 L 53.40625 5.9414062 L 48.300781 24.992188 L 51.792969 24.992188 L 56.898438 5.9414062 L 60.548828 5.9414062 L 61.400391 2.7675781 L 50.605469 2.7675781 z M 29.212891 5.9414062 L 31.179688 5.9414062 C 31.751188 5.9414062 32.140115 6.1105521 32.345703 6.4492188 C 32.57246 6.7878854 32.585037 7.3395625 32.380859 8.1015625 L 29.283203 19.658203 C 29.079026 20.420203 28.77348 20.969927 28.365234 21.308594 C 27.978156 21.64726 27.499234 21.816406 26.927734 21.816406 L 24.958984 21.816406 L 29.212891 5.9414062 z M 60.251953 21.626953 L 59.349609 24.992188 L 62.714844 24.992188 L 63.617188 21.626953 L 60.251953 21.626953 z "
       id="path37" />
    <path
       style="line-height:1.25;-inkscape-font-specification:'Bebas Neue Bold';fill:#d90368;stroke:#ffffff"
       d="M 65.951172 0.39648438 C 64.257839 0.39648437 62.845524 0.88375521 61.716797 1.8574219 C 60.593742 2.8099219 59.792632 4.1852083 59.310547 5.984375 L 58.722656 8.1738281 L 62.025391 8.1738281 L 62.671875 5.7617188 C 62.876052 4.9997187 63.171515 4.4499948 63.558594 4.1113281 C 63.951344 3.7514948 64.432406 3.5703125 65.003906 3.5703125 C 65.575406 3.5703125 65.962193 3.7514948 66.162109 4.1113281 C 66.367687 4.4499948 66.36824 4.9997188 66.164062 5.7617188 C 65.823767 7.0317188 65.376453 8.0687135 64.822266 8.8730469 C 64.268079 9.6773802 63.530153 10.577432 62.607422 11.572266 C 61.78222 12.440099 61.11385 13.233458 60.603516 13.953125 C 60.12002 14.651625 59.736705 15.529557 59.453125 16.587891 C 59.311334 17.117057 59.25243 17.572125 59.277344 17.953125 L 62.388672 17.953125 C 62.400422 17.593292 62.468975 17.18051 62.59375 16.714844 C 62.814942 15.889344 63.146295 15.170474 63.585938 14.556641 C 64.046747 13.942807 64.696412 13.211901 65.537109 12.365234 C 66.577017 11.328068 67.420362 10.355479 68.066406 9.4453125 C 68.712452 8.5351458 69.223331 7.381375 69.597656 5.984375 C 70.079742 4.1852083 70.013003 2.8099219 69.400391 1.8574219 C 68.793451 0.88375521 67.644505 0.39648437 65.951172 0.39648438 z M 6.3515625 0.65039062 L 2.8730469 22.875 L 7.6679688 22.875 L 12.111328 11.033203 L 10.207031 22.875 L 14.841797 22.875 L 23.273438 0.65039062 L 20.226562 0.65039062 L 13.685547 18.302734 L 16.669922 0.65039062 L 13.304688 0.65039062 L 6.9257812 18.175781 L 9.7480469 0.65039062 L 6.3515625 0.65039062 z M 25.021484 0.65039062 L 19.064453 22.875 L 24.589844 22.875 C 26.32551 22.875 27.751757 22.409849 28.869141 21.478516 C 29.986524 20.547182 30.787446 19.181979 31.269531 17.382812 L 34.279297 6.1425781 C 34.761382 4.3434115 34.694455 2.9782083 34.076172 2.046875 C 33.457889 1.1155417 32.280589 0.65039063 30.544922 0.65039062 L 25.021484 0.65039062 z M 36.355469 0.65039062 L 36.787109 15.509766 L 34.8125 22.875 L 38.306641 22.875 L 40.279297 15.509766 L 48.673828 0.65039062 L 45.339844 0.65039062 L 39.958984 10.777344 L 40.005859 0.65039062 L 36.355469 0.65039062 z M 49.054688 0.65039062 L 48.205078 3.8242188 L 51.855469 3.8242188 L 46.751953 22.875 L 50.244141 22.875 L 55.347656 3.8242188 L 59 3.8242188 L 59.849609 0.65039062 L 49.054688 0.65039062 z M 27.662109 3.8242188 L 29.630859 3.8242188 C 30.202359 3.8242187 30.591287 3.9933646 30.796875 4.3320312 C 31.023632 4.6706979 31.034255 5.222375 30.830078 5.984375 L 27.734375 17.541016 C 27.530198 18.303016 27.222698 18.85274 26.814453 19.191406 C 26.427374 19.530073 25.948453 19.699219 25.376953 19.699219 L 23.408203 19.699219 L 27.662109 3.8242188 z M 58.701172 19.509766 L 57.800781 22.875 L 61.166016 22.875 L 62.068359 19.509766 L 58.701172 19.509766 z "
       id="path20" />
  </g>
</svg>
